<svg id="Layer_1" data-name="Layer 1" xmlns="http://www.w3.org/2000/svg" viewBox="0 0 534.32 534.32"><title>as29_favicon_black</title><polygon points="136.94 288.72 201.14 288.72 168.87 196.57 136.94 288.72"/><path d="M321,48.13C173.41,48.13,53.8,167.74,53.8,315.28S173.41,582.44,321,582.44,588.11,462.83,588.11,315.28,468.5,48.13,321,48.13ZM288.58,433.61,266.41,370H179.29l-21.81,63.64H119.41l84.44-235.5h40.49l84.07,235.5Zm148.58,3.53c-45.53,0-79.91-22.67-95.07-60.87L376,362.57c11.31,26.6,31.21,41.08,61.21,41.08,27.4,0,45.82-13.67,45.82-34,0-19.66-16.18-27.29-52.44-37-47.51-12.52-79.15-29.23-79.15-69.93,0-38.86,37.36-69.3,85-69.3,40.21,0,71.49,20.52,86.11,55.79L489,263.35c-9.44-23.54-26.82-36.41-52.56-36.44s-45.82,14.63-45.82,33.31h0c0,18.51,15.36,25.74,52.1,35.89,47.48,13,79.11,29.9,79.11,70.3C521.83,408.06,487,437.14,437.16,437.14Z" transform="translate(-53.8 -48.13)"/></svg>