<svg xmlns="http://www.w3.org/2000/svg" viewBox="0 0 1003 244.79"><g id="Layer_2" data-name="Layer 2"><g id="Layer_1-2" data-name="Layer 1"><path d="M84.44,4.69,0,240.19H38.07l21.81-63.64H147l22.17,63.64H209L124.93,4.69ZM71.33,143.42l31.93-92.15,32.27,92.15Zm259-76.62c0,18.51,15.36,25.74,52.1,35.89,47.48,13,79.11,29.9,79.11,70.3,0,41.65-34.82,70.73-84.67,70.73-45.53,0-79.91-22.67-95.07-60.87l33.86-13.7c11.31,26.6,31.21,41.08,61.21,41.08,27.4,0,45.82-13.67,45.82-34,0-19.66-16.18-27.29-52.44-37C322.74,126.71,291.1,110,291.1,69.3c0-38.86,37.36-69.3,85-69.3,40.21,0,71.49,20.52,86.11,55.79L428.7,69.93c-9.44-23.54-26.82-36.41-52.56-36.44S330.32,48.12,330.32,66.8ZM615.74,204.15h110v36H559.16V210l76.06-75C660,110.6,679.55,91.3,679.55,68.91c0-10.69-3.1-19.11-9.21-25-6.46-6.25-16.08-9.36-27.82-9-24,.79-44.76,21.62-53.13,41.94L556.83,62.09C571.78,22.78,604.69,0,643.48,0c43.39,0,74.88,27.94,74.88,66.44,0,38.05-31.18,68.69-51.82,89l-1.22,1.19ZM904.74,0c-49.1,0-86.11,35.48-86.11,82.53,0,21,8,40.28,22.44,54.29,15.57,15.08,37.87,23.24,61.22,22.52s48.24-10.64,62.86-26.62c-3.24,49.63-27.72,78.94-62.2,78.94-22.83,0-44.23-13.55-57.27-34.77l-28.16,19.48c18.61,30.83,49.69,48.42,85.43,48.42,59.84,0,100-50.55,100-125.8C1002.64,48.93,962.23,0,904.74,0Zm.37,125.18c-14.21.39-26.23-3.83-34.69-12.08a43.29,43.29,0,0,1-13.19-31.63c0-27,20.82-46.91,48.22-46.91,28.58,0,48.73,20.83,55.36,57.19C947.76,112,927,124.51,905.11,125.18Z"/></g></g></svg>