<svg id="Layer_1" data-name="Layer 1" xmlns="http://www.w3.org/2000/svg" viewBox="0 0 200 47.35"><defs><style>.cls-1{fill:#fff;}</style></defs><title>kaza-logo</title><polygon class="cls-1" points="98.12 47.35 87.67 47.35 70.32 17.82 52.99 47.35 42.53 47.35 70.32 0 98.12 47.35"/><path class="cls-1" d="M11.93,2.72V22.29L29,2.72H40.42L20.78,24.09,41.46,49h-12L13,28.25l-1.05,1V49h-9V2.72Z" transform="translate(-2.88 -1.65)"/><path class="cls-1" d="M143.2,2.72,120.63,41.23h21.45V49H105.59l22.56-38.51h-19V2.72Z" transform="translate(-2.88 -1.65)"/><polygon class="cls-1" points="200 47.35 189.54 47.35 172.2 17.82 154.86 47.35 144.41 47.35 172.2 0 200 47.35"/></svg>